<?xml version="1.0" encoding="UTF-8" standalone="no"?>
<!DOCTYPE svg PUBLIC "-//W3C//DTD SVG 1.1//EN"
 "http://www.w3.org/Graphics/SVG/1.1/DTD/svg11.dtd">
<!-- Generated by graphviz version 2.43.0 (0)
 -->
<!-- Title: snakemake_dag Pages: 1 -->
<svg width="123pt" height="260pt"
 viewBox="0.00 0.00 123.00 260.00" xmlns="http://www.w3.org/2000/svg" xmlns:xlink="http://www.w3.org/1999/xlink">
<g id="graph0" class="graph" transform="scale(1 1) rotate(0) translate(4 256)">
<title>snakemake_dag</title>
<polygon fill="white" stroke="transparent" points="-4,4 -4,-256 119,-256 119,4 -4,4"/>
<!-- 0 -->
<g id="node1" class="node">
<title>0</title>
<path fill="none" stroke="#59d856" stroke-width="2" d="M72.5,-36C72.5,-36 42.5,-36 42.5,-36 36.5,-36 30.5,-30 30.5,-24 30.5,-24 30.5,-12 30.5,-12 30.5,-6 36.5,0 42.5,0 42.5,0 72.5,0 72.5,0 78.5,0 84.5,-6 84.5,-12 84.5,-12 84.5,-24 84.5,-24 84.5,-30 78.5,-36 72.5,-36"/>
<text text-anchor="middle" x="57.5" y="-15.5" font-family="sans" font-size="10.00">all</text>
</g>
<!-- 1 -->
<g id="node2" class="node">
<title>1</title>
<path fill="none" stroke="#56d8d8" stroke-width="2" d="M86,-108C86,-108 29,-108 29,-108 23,-108 17,-102 17,-96 17,-96 17,-84 17,-84 17,-78 23,-72 29,-72 29,-72 86,-72 86,-72 92,-72 98,-78 98,-84 98,-84 98,-96 98,-96 98,-102 92,-108 86,-108"/>
<text text-anchor="middle" x="57.5" y="-87.5" font-family="sans" font-size="10.00">run_classifier</text>
</g>
<!-- 1&#45;&gt;0 -->
<g id="edge1" class="edge">
<title>1&#45;&gt;0</title>
<path fill="none" stroke="grey" stroke-width="2" d="M57.5,-71.7C57.5,-63.98 57.5,-54.71 57.5,-46.11"/>
<polygon fill="grey" stroke="grey" stroke-width="2" points="61,-46.1 57.5,-36.1 54,-46.1 61,-46.1"/>
</g>
<!-- 2 -->
<g id="node3" class="node">
<title>2</title>
<path fill="none" stroke="#d6d856" stroke-width="2" d="M103,-180C103,-180 12,-180 12,-180 6,-180 0,-174 0,-168 0,-168 0,-156 0,-156 0,-150 6,-144 12,-144 12,-144 103,-144 103,-144 109,-144 115,-150 115,-156 115,-156 115,-168 115,-168 115,-174 109,-180 103,-180"/>
<text text-anchor="middle" x="57.5" y="-159.5" font-family="sans" font-size="10.00">feature_engineering</text>
</g>
<!-- 2&#45;&gt;1 -->
<g id="edge2" class="edge">
<title>2&#45;&gt;1</title>
<path fill="none" stroke="grey" stroke-width="2" d="M57.5,-143.7C57.5,-135.98 57.5,-126.71 57.5,-118.11"/>
<polygon fill="grey" stroke="grey" stroke-width="2" points="61,-118.1 57.5,-108.1 54,-118.1 61,-118.1"/>
</g>
<!-- 3 -->
<g id="node4" class="node">
<title>3</title>
<path fill="none" stroke="#d85656" stroke-width="2" d="M72.5,-252C72.5,-252 42.5,-252 42.5,-252 36.5,-252 30.5,-246 30.5,-240 30.5,-240 30.5,-228 30.5,-228 30.5,-222 36.5,-216 42.5,-216 42.5,-216 72.5,-216 72.5,-216 78.5,-216 84.5,-222 84.5,-228 84.5,-228 84.5,-240 84.5,-240 84.5,-246 78.5,-252 72.5,-252"/>
<text text-anchor="middle" x="57.5" y="-231.5" font-family="sans" font-size="10.00">eda</text>
</g>
<!-- 3&#45;&gt;2 -->
<g id="edge3" class="edge">
<title>3&#45;&gt;2</title>
<path fill="none" stroke="grey" stroke-width="2" d="M57.5,-215.7C57.5,-207.98 57.5,-198.71 57.5,-190.11"/>
<polygon fill="grey" stroke="grey" stroke-width="2" points="61,-190.1 57.5,-180.1 54,-190.1 61,-190.1"/>
</g>
</g>
</svg>
